# xmcd
#
# Track frame offsets: 
#        150
#        24815
#        47149
#        65469
#        95939
#        111446
#        129066
#        169051
#        174674
#        195088
#        214043
#
# Disc length: 3149 seconds
#
# Revision: 0
# Processed by: cddbd v1.5.2PL0 Copyright (c) Steve Scherf et al.
# Submitted via: ExactAudioCopy v0.99pb4
#
DISCID=8f0c4b0b
DTITLE=Barry Cuda and the Sharks - Fish Nuts
DYEAR=1900
DGENRE=Boogie
TTITLE0=In the Night
TTITLE1=Reelin' and Rockin'
TTITLE2=Fish Nuts
TTITLE3=My Baby Don't Wear No Drawers
TTITLE4=Whirlaway
TTITLE5=Hank Ballard (Stole My Date)
TTITLE6=These Cats Sho' Be Havin' Some Nicknames
TTITLE7=Heavy Metal Cat
TTITLE8=Great Big Eyes
TTITLE9=Fucked Up
TTITLE10=Put Your Feets Up in the Air
EXTD=
EXTT0=
EXTT1=
EXTT2=
EXTT3=
EXTT4=
EXTT5=
EXTT6=
EXTT7=
EXTT8=
EXTT9=
EXTT10=
PLAYORDER=
